<svg width="26" height="26" viewBox="0 0 18 26" fill="none" xmlns="http://www.w3.org/2000/svg">
<path fill-rule="evenodd" clip-rule="evenodd" d="M15.3049 0H0V5.25684H15.3049C16.756 5.25684 17.9333 4.07952 17.9333 2.62842C17.9333 1.17732 16.756 0 15.3049 0ZM1.50195 3.75488V1.50195H15.3049C15.9265 1.50195 16.4314 2.00682 16.4314 2.62842C16.4314 3.25001 15.9265 3.75488 15.3049 3.75488H1.50195ZM9.37219 7.50977H0V22.9649C0 24.416 1.17732 25.5933 2.62842 25.5933C4.07952 25.5933 5.25684 24.416 5.25684 22.9649V12.7666H9.37219C10.0921 12.7666 10.7428 12.4702 11.2191 11.9968C11.7081 11.5259 12.0006 10.867 12.0006 10.1382C12.0006 8.68709 10.8233 7.50977 9.37219 7.50977ZM1.50195 22.9649V9.01172H9.37219C9.99379 9.01172 10.4987 9.51659 10.4987 10.1382C10.4987 10.4577 10.373 10.7276 10.1748 10.9172L10.1688 10.923L10.1629 10.9289C9.94879 11.143 9.67066 11.2647 9.37219 11.2647H3.75488V22.9649C3.75488 23.5865 3.25001 24.0913 2.62842 24.0913C2.00682 24.0913 1.50195 23.5865 1.50195 22.9649Z" fill="#33FF00"/>
</svg>
